<svg xmlns="http://www.w3.org/2000/svg" width="48" height="48" viewBox="0 0 24 24" fill="none" class="injected-svg" data-src="/icons/go-backward-10-sec-stroke-sharp.svg" xmlns:xlink="http://www.w3.org/1999/xlink" role="img" color="#676767">
<path d="M12 5L10 2.20004C10.6462 2.06886 11.3151 2 12 2C17.5228 2 22 6.47715 22 12C22 17.5228 17.5228 22 12 22C6.47715 22 2 17.5228 2 12C2 8.72836 3.57111 5.82368 6 3.99927" stroke="#676767" stroke-width="1.5" stroke-linejoin="round"></path>
<!-- <path d="M9 9.5H9.75C9.75 9.21592 9.5895 8.95623 9.33541 8.82918C9.08133 8.70214 8.77727 8.72955 8.55001 8.9L9 9.5ZM8.25 15.5V16.25H9.75V15.5H8.25ZM12 15.5H11.25C11.25 15.9142 11.5857 16.25 12 16.25V15.5ZM15.5 15.5V16.25C15.9142 16.25 16.25 15.9142 16.25 15.5H15.5ZM15.5 9.5H16.25C16.25 9.30109 16.1709 9.11032 16.0303 8.96967C15.8896 8.82902 15.6989 8.75 15.5 8.75V9.5ZM12 9.5V8.75C11.5857 8.75 11.25 9.08579 11.25 9.5H12ZM8.25 9.5V15.5H9.75V9.5H8.25ZM8.55001 8.9L6.54996 10.4L7.44995 11.6L9.44999 10.1L8.55001 8.9ZM14.75 9.5V15.5H16.25V9.5H14.75ZM12.75 15.5V9.5H11.25V15.5H12.75ZM15.5 14.75H12V16.25H15.5V14.75ZM12 10.25L15.5 10.25V8.75L12 8.75V10.25Z" fill="#676767"></path> -->
</svg>